<svg width="128" height="128" viewBox="0 0 128 128" fill="none" xmlns="http://www.w3.org/2000/svg">
  <rect width="128" height="128" rx="24" fill="#4F46E5"/>
  <path d="M64 24C42.4 24 24 42.4 24 64C24 85.6 42.4 104 64 104C85.6 104 104 85.6 104 64C104 42.4 85.6 24 64 24ZM64 96C47.5 96 34 82.5 34 66C34 49.5 47.5 36 64 36C80.5 36 94 49.5 94 66C94 82.5 80.5 96 64 96Z" fill="white"/>
  <path d="M64 44C54.1 44 46 52.1 46 62C46 71.9 54.1 80 64 80C73.9 80 82 71.9 82 62C82 52.1 73.9 44 64 44ZM64 72C58.5 72 54 67.5 54 62C54 56.5 58.5 52 64 52C69.5 52 74 56.5 74 62C74 67.5 69.5 72 64 72Z" fill="white"/>
  <path d="M48 48L38 58L48 68L52 64L46 58L52 52L48 48Z" fill="white"/>
  <path d="M80 48L76 52L82 58L76 64L80 68L90 58L80 48Z" fill="white"/>
</svg>
